<?xml version="1.0" encoding="UTF-8" standalone="no"?>
<!DOCTYPE svg PUBLIC "-//W3C//DTD SVG 1.1//EN" "http://www.w3.org/Graphics/SVG/1.1/DTD/svg11.dtd">
<svg width="100%" height="100%" viewBox="0 0 1588 2246" version="1.1" xmlns="http://www.w3.org/2000/svg" xmlns:xlink="http://www.w3.org/1999/xlink" xml:space="preserve" xmlns:serif="http://www.serif.com/" style="fill-rule:evenodd;clip-rule:evenodd;stroke-linecap:round;stroke-linejoin:round;stroke-miterlimit:1.5;">
    <g transform="matrix(1,0,0,1,156.08,1287.19)">
        <g>
            <g transform="matrix(1,0,0,1,93.648,793.387)">
                <text x="0px" y="0px" style="font-family:'Arial-BoldMT', 'Arial', sans-serif;font-weight:700;font-size:29.44px;">C</text>
            </g>
            <g transform="matrix(1,0,0,1,114.761,793.387)">
                <text x="0px" y="0px" style="font-family:'Arial-BoldMT', 'Arial', sans-serif;font-weight:700;font-size:29.44px;">O<tspan x="22.753px 42.242px 61.731px 82.844px 90.876px 113.628px 134.742px 152.578px 160.61px 180.099px 201.212px 223.965px 241.801px 261.29px 282.403px 300.239px 319.728px 340.841px 348.874px 369.987px 392.739px 413.853px 434.966px 459.343px 478.832px 499.945px " y="0px 0px 0px 0px 0px 0px 0px 0px 0px 0px 0px 0px 0px 0px 0px 0px 0px 0px 0px 0px 0px 0px 0px 0px 0px 0px ">PYRIGHT PROTECTED DOCUMENT</tspan></text>
            </g>
        </g>
    </g>
    <g transform="matrix(1,0,0,1,115.201,2177.59)">
        <text x="0px" y="0px" style="font-family:'ArialMT', 'Arial', sans-serif;font-size:32px;">© Ecma International</text>
    </g>
    <g transform="matrix(0.783709,0,0,0.833745,37.2296,400.83)">
        <path d="M143.043,1916.48L201.253,2012.71L84.515,2012.71L143.043,1916.48Z" style="fill:rgb(235,235,235);stroke:black;stroke-width:9.89px;"/>
    </g>
    <g transform="matrix(1,0,0,1,269.735,1955.4)">
        <text x="0px" y="0px" style="font-family:'ArialMT', 'Arial', sans-serif;font-size:23.2px;">is the registered trademark of Ecma International</text>
    </g>
    <g transform="matrix(1,0,0,1.25411,2.44513,-511.932)">
        <path d="M149.924,2051.03L152.692,2037.42C153.326,2034.25 154.191,2029.81 154.191,2028.08C154.191,2024.45 151.942,2021.22 147.272,2021.22C142.602,2021.22 140.354,2024.45 140.354,2028.08C140.354,2029.81 141.218,2034.25 141.853,2037.42L144.62,2051.03L149.924,2051.03Z"/>
    </g>
    <g transform="matrix(0.824705,0,0,0.892752,28.2612,230.221)">
        <path d="M141.622,2058.58C141.622,2061.69 144.159,2064 147.272,2064C150.385,2064 152.922,2061.69 152.922,2058.58C152.922,2055.47 150.385,2053.16 147.272,2053.16C144.159,2053.16 141.622,2055.47 141.622,2058.58Z"/>
    </g>
    <g id="g12" transform="matrix(0.126322,3.09435e-33,3.09435e-33,-0.126322,267.515,2352.29)">
        <path id="path14" d="M1705.1,3407.04L0,3407.04L0,4399.17L1705.1,4399.17L1705.1,3407.04" style="fill:rgb(203,215,222);fill-rule:nonzero;"/>
        <path id="path16" d="M309.605,3723.67C287.621,3739.01 260.016,3759.88 239.555,3779.71C210.211,3806.33 186.227,3838.79 169.469,3874.57C182.496,3837.14 203.363,3800.96 234.176,3771.58C257.965,3752.13 283.453,3736.38 309.605,3723.67ZM593.113,4188.01C570.094,4222.92 525.977,4243.52 483.59,4256.97C357.707,4306.6 178.266,4211.96 151.664,4048.79C149.957,4041.19 147.145,4023.8 147.828,4010.79C159.215,4110.59 219.711,4198.17 301.898,4235.45C382.91,4274.38 478.578,4267.5 544.133,4221.4C547.516,4218.75 550.891,4215.9 554.098,4213.09C542.637,4219 530.543,4224 518.039,4228.01C473.699,4249.38 420.953,4257.85 368.508,4246.6C265.293,4230.42 171.715,4136.44 155.563,4019.21C154.254,4011.63 153.375,4003.89 152.832,3996.13C149.727,3998.38 147.828,4003.89 147.828,4010.79C146.094,4002.79 146.094,3994.8 146.48,3986.71C145.359,3949.21 153.809,3910.57 169.469,3874.57C163.391,3893.16 159.586,3911.94 157.504,3930.69C164.965,3894.16 180.336,3859.04 203.734,3830.79C219.117,3814.97 236.34,3780.23 257.168,3769.08C336.379,3706.25 456.566,3684.92 537.688,3731.14C548.793,3734.13 559.863,3737.34 569.859,3743.13C556.898,3738.83 542.348,3735.96 530.715,3731.88L526.836,3731.84C523.484,3729.93 521.816,3729.02 520.105,3728.09C460.215,3720.53 337.566,3707.25 261.98,3770.96C240.52,3786.36 223.906,3806.62 208.336,3827.4C216.293,3821.96 229.109,3814.6 236.84,3806.46C274.918,3768.43 327.227,3734.04 378.16,3729.93C354.672,3739.52 334.496,3750.93 312.281,3764.38C300.777,3769.68 282.348,3772.73 273.996,3782.47C226.398,3823.09 185.73,3864.71 178.414,3927.2C177.301,3933.33 181.266,3938.17 179.281,3943.76C191.285,3874.57 234.633,3823.39 289.094,3782.58C296.484,3773.91 304.824,3770.33 312.281,3764.38C321.801,3760.96 330.246,3757.67 337.246,3753.98C418.105,3723.76 432.535,3756.91 505.043,3757.96C472.34,3749.67 416.438,3734.38 388.148,3732.54C439.016,3722.06 535.02,3747.95 578.871,3780.59C633.379,3817.79 622.441,3819.46 650.59,3867.04C653.051,3870.93 655.449,3879.79 657.473,3890.52C674.574,3923.45 684.375,3960.83 684.375,4000.51C684.375,4076.64 648.629,4144.32 593.113,4188.01ZM194.215,3949.4C189.43,3980.26 188.008,4011.8 194.664,4043.13C194.031,4036.95 193.516,4031.98 193.813,4029.61C190.805,3991.82 193.711,3960.95 197.172,3940.89C196.305,3943.56 195.328,3946.32 194.215,3949.4C195.547,3943.45 197.141,3937.53 198.965,3931.79C201.98,3917.64 204.766,3912 203.969,3917.23C228.145,3853.88 279.145,3804.97 335.703,3781.88C280.441,3788.75 207.242,3864.16 194.215,3949.4ZM355.359,4221.52C309.148,4211.88 263.938,4186.35 230.742,4141.11C252.988,4169.3 279.527,4184.45 305.426,4193.55C303.09,4191.84 300.816,4190.14 298.57,4188.38C278.363,4176.4 259.391,4162 242.414,4143.96C237.832,4138.09 235.742,4130.94 231.465,4125.75L222.406,4112.09C210.395,4100.74 203.219,4087.15 195.41,4072.75C161.504,3997.95 165.582,3904.81 212.113,3826.5C127.98,3943 161.168,4109.46 260.738,4183.17C302.172,4215.86 350.191,4231.82 397.344,4234.42C382.82,4231.43 368.809,4227.01 355.359,4221.52ZM508.203,3760.59C500.367,3759.2 512.473,3762.59 547.707,3783.4C550.766,3785.16 554.082,3787.29 557.543,3789.56C571.277,3796.84 584.27,3805.49 596.285,3815.3C561.598,3781.73 518.98,3760.42 508.203,3760.59" style="fill:rgb(238,132,33);fill-rule:nonzero;"/>
        <path id="path18" d="M894.211,3946.2C894.211,3868.6 943.969,3850.09 1021.18,3850.09L1150.39,3850.09L1150.39,3734.53L1000.92,3734.53C848.188,3734.53 760.781,3788.09 760.781,3990.18C760.781,4165.1 789.359,4257.05 988.051,4257.05C1145.71,4257.05 1184.02,4192.64 1184.02,4053.13L1184.02,3945.18L894.211,3946.2ZM1058.9,4052.56C1058.9,4103.71 1059.14,4153.75 980.676,4153.75C903.184,4153.75 893.289,4105.79 893.289,4052.56L1058.9,4052.56" style="fill:rgb(35,31,32);fill-rule:nonzero;"/>
        <path id="path20" d="M2152.97,4257.05L1705.1,4257.05L1705.1,3734.53L1817.07,3734.53L1817.07,4145.1L1896.04,4145.1L1896.04,4145.05C1922.91,4145.05 1944.82,4124.62 1947.7,4098.46L1947.7,3734.53L2059.67,3734.53L2059.67,4145.1L2138.05,4145.1L2138.05,4145.05C2166.84,4145.05 2190.27,4121.62 2190.27,4092.83L2190.27,3734.53L2302.23,3734.53L2302.23,4107.77C2302.23,4190.16 2235.43,4257.05 2152.97,4257.05" style="fill:rgb(35,31,32);fill-rule:nonzero;"/>
        <path id="path22" d="M1421.48,4145.05L1421.48,4145.1L1630.49,4145.1L1630.49,4257.05L1402,4257.05L1401.93,4256.78C1328.32,4254.55 1268.28,4199.12 1258.73,4127.59L1257.23,4127.59L1257.23,3885L1258.73,3885L1257.23,3883.8C1257.23,3803.01 1321.62,3737.25 1401.93,3734.8L1402,3734.53L1630.49,3734.53L1630.49,3846.54L1421.48,3846.54C1392.65,3846.54 1369.22,3869.97 1369.22,3898.8L1369.22,4092.83C1369.22,4121.62 1392.65,4145.05 1421.48,4145.05" style="fill:rgb(35,31,32);fill-rule:nonzero;"/>
        <path id="path24" d="M2750.1,4107.77C2750.1,4190.16 2683.26,4257.05 2600.8,4257.05L2376.88,4257.05L2376.88,4145.1L2585.9,4145.1L2585.9,4145.05C2621,4145.05 2638.14,4121.62 2638.14,4092.83C2638.14,4092.83 2638.14,4084.92 2621.66,4071.95C2600.29,4055.21 2511.72,4031.05 2463.44,4011.76L2463.44,4012C2388.13,3986.8 2353.54,3939.77 2353.54,3866.09C2353.54,3770.33 2395.7,3733.34 2478.57,3733.34L2750.1,3733.34C2747.7,3789.56 2750.1,4107.77 2750.1,4107.77ZM2638.14,3843.75L2478.54,3843.75C2468.5,3843.75 2462.66,3843.75 2461.88,3850.9C2454.28,3919.34 2495.84,3916.75 2638.14,3965.77L2638.14,3843.75" style="fill:rgb(35,31,32);fill-rule:nonzero;"/>
        <path id="path26" d="M1818.69,3574.56L1852.3,3574.56L1852.3,3407.04L1818.69,3407.04L1818.69,3574.56" style="fill:rgb(203,215,222);fill-rule:nonzero;"/>
        <path id="path28" d="M1893.81,3574.56L1935.1,3574.56L1998.95,3449.29L1999.41,3449.29L1999.41,3574.56L2031.58,3574.56L2031.58,3407.04L1990.55,3407.04L1926.46,3532.32L1925.98,3532.32L1925.98,3407.04L1893.81,3407.04L1893.81,3574.56" style="fill:rgb(203,215,222);fill-rule:nonzero;"/>
        <path id="path30" d="M2106.46,3548.17L2058.46,3548.17L2058.46,3574.56L2188.05,3574.56L2188.05,3548.17L2140.06,3548.17L2140.06,3407.04L2106.46,3407.04L2106.46,3548.17" style="fill:rgb(203,215,222);fill-rule:nonzero;"/>
        <path id="path32" d="M2216.62,3574.56L2315.49,3574.56L2315.49,3548.17L2250.21,3548.17L2250.21,3506.88L2309.98,3506.88L2309.98,3480.49L2250.21,3480.49L2250.21,3433.44L2315.98,3433.44L2315.98,3407.04L2216.62,3407.04L2216.62,3574.56" style="fill:rgb(203,215,222);fill-rule:nonzero;"/>
        <path id="path34" d="M2354.38,3574.56L2390.61,3574.56C2426.62,3574.56 2469.57,3575.76 2469.57,3529.21C2469.57,3509.52 2456.37,3493.2 2435.02,3490.33L2435.02,3489.84C2444.14,3489.13 2449.41,3480 2452.77,3472.56L2479.65,3407.04L2442.21,3407.04L2422.05,3459.38C2417.25,3471.84 2412.93,3476.64 2398.77,3476.64L2387.97,3476.64L2387.97,3407.04L2354.38,3407.04L2354.38,3574.56ZM2387.97,3503.05L2399.02,3503.05C2415.57,3503.05 2434.53,3505.45 2434.53,3526.33C2434.53,3546.49 2415.82,3548.17 2399.02,3548.17L2387.97,3548.17L2387.97,3503.05" style="fill:rgb(203,215,222);fill-rule:nonzero;"/>
        <path id="path36" d="M2509.41,3574.56L2550.7,3574.56L2614.53,3449.29L2615.02,3449.29L2615.02,3574.56L2647.17,3574.56L2647.17,3407.04L2606.13,3407.04L2542.05,3532.32L2541.58,3532.32L2541.58,3407.04L2509.41,3407.04L2509.41,3574.56" style="fill:rgb(203,215,222);fill-rule:nonzero;"/>
        <path id="path38" d="M2739.57,3574.56L2777.48,3574.56L2843.24,3407.04L2806.05,3407.04L2791.64,3445.45L2723.73,3445.45L2709.08,3407.04L2674.3,3407.04L2739.57,3574.56ZM2758.05,3540.96L2757.58,3540.96L2733.32,3471.84L2782.29,3471.84L2758.05,3540.96" style="fill:rgb(203,215,222);fill-rule:nonzero;"/>
        <path id="path40" d="M2883.36,3548.17L2835.37,3548.17L2835.37,3574.56L2964.96,3574.56L2964.96,3548.17L2916.97,3548.17L2916.97,3407.04L2883.36,3407.04L2883.36,3548.17" style="fill:rgb(203,215,222);fill-rule:nonzero;"/>
        <path id="path42" d="M2990.64,3574.56L3024.24,3574.56L3024.24,3407.04L2990.64,3407.04L2990.64,3574.56" style="fill:rgb(203,215,222);fill-rule:nonzero;"/>
        <path id="path44" d="M3141.37,3577.44C3193.93,3577.44 3223.44,3541.92 3223.44,3491.29C3223.44,3440.64 3194.41,3404.17 3141.37,3404.17C3087.6,3404.17 3059.28,3439.92 3059.28,3491.29C3059.28,3542.64 3088.09,3577.44 3141.37,3577.44ZM3141.37,3430.57C3175.68,3430.57 3188.4,3461.05 3188.4,3491.29C3188.4,3520.8 3174.73,3551.05 3141.37,3551.05C3108.01,3551.05 3094.32,3520.8 3094.32,3491.29C3094.32,3461.05 3107.05,3430.57 3141.37,3430.57" style="fill:rgb(203,215,222);fill-rule:nonzero;"/>
        <path id="path46" d="M3259.69,3574.56L3300.96,3574.56L3364.8,3449.29L3365.29,3449.29L3365.29,3574.56L3397.44,3574.56L3397.44,3407.04L3356.41,3407.04L3292.32,3532.32L3291.86,3532.32L3291.86,3407.04L3259.69,3407.04L3259.69,3574.56" style="fill:rgb(203,215,222);fill-rule:nonzero;"/>
        <path id="path48" d="M3489.84,3574.56L3527.75,3574.56L3593.52,3407.04L3556.33,3407.04L3541.91,3445.45L3474,3445.45L3459.36,3407.04L3424.57,3407.04L3489.84,3574.56ZM3508.32,3540.96L3507.85,3540.96L3483.59,3471.84L3532.56,3471.84L3508.32,3540.96" style="fill:rgb(203,215,222);fill-rule:nonzero;"/>
        <path id="path50" d="M3622.32,3574.56L3655.92,3574.56L3655.92,3433.44L3720.96,3433.44L3720.96,3407.04L3622.32,3407.04L3622.32,3574.56" style="fill:rgb(203,215,222);fill-rule:nonzero;"/>
    </g>
</svg>
