<svg xmlns="http://www.w3.org/2000/svg" xml:space="preserve" style="fill-rule:evenodd;clip-rule:evenodd;stroke-linecap:round;stroke-linejoin:round;stroke-miterlimit:1.5" viewBox="0 0 1588 2246"><text style="font-family:&quot;Arial-BoldMT&quot;,&quot;Arial&quot;,sans-serif;font-weight:700;font-size:29.44px" transform="translate(249.728 2080.577)">C</text><text style="font-family:&quot;Arial-BoldMT&quot;,&quot;Arial&quot;,sans-serif;font-weight:700;font-size:29.44px" transform="translate(270.841 2080.577)">O<tspan x="22.753px 42.242px 61.731px 82.844px 90.876px 113.628px 134.742px 152.578px 160.61px 180.099px 201.212px 223.965px 241.801px 261.29px 282.403px 300.239px 319.728px 340.841px 348.874px 369.987px 392.739px 413.853px 434.966px 459.343px 478.832px 499.945px" y="0px 0px 0px 0px 0px 0px 0px 0px 0px 0px 0px 0px 0px 0px 0px 0px 0px 0px 0px 0px 0px 0px 0px 0px 0px 0px">PYRIGHT PROTECTED DOCUMENT</tspan></text><text style="font-family:&quot;ArialMT&quot;,&quot;Arial&quot;,sans-serif;font-size:32px" transform="translate(115.201 2177.59)">© Ecma International</text><path d="m143.043 1916.48 58.21 96.23H84.515z" style="fill:#ebebeb;stroke:#000;stroke-width:9.89px" transform="matrix(.7837 0 0 .83374 37.23 400.83)"/><text style="font-family:&quot;ArialMT&quot;,&quot;Arial&quot;,sans-serif;font-size:23.2px" transform="translate(269.735 1955.4)">is the registered trademark of Ecma International</text><path d="m152.37 2060.285 2.767-17.068c.634-3.976 1.5-9.544 1.5-11.714 0-4.552-2.25-8.603-6.92-8.603s-6.918 4.051-6.918 8.603c0 2.17.864 7.738 1.5 11.714l2.766 17.068zm-7.312 7.737c0 2.777 2.092 4.84 4.66 4.84 2.566 0 4.659-2.063 4.659-4.84s-2.093-4.838-4.66-4.838-4.66 2.062-4.66 4.838"/><path d="M1705.1 3407.04H0v992.13h1705.1z" style="fill:#cbd7de;fill-rule:nonzero" transform="matrix(.12632 0 0 -.12632 267.515 2352.29)"/><path d="M309.605 3723.67c-21.984 15.34-49.589 36.21-70.05 56.04-29.344 26.62-53.328 59.08-70.086 94.86 13.027-37.43 33.894-73.61 64.707-102.99 23.789-19.45 49.277-35.2 75.429-47.91m283.508 464.34c-23.019 34.91-67.136 55.51-109.523 68.96-125.883 49.63-305.324-45.01-331.926-208.18-1.707-7.6-4.519-24.99-3.836-38 11.387 99.8 71.883 187.38 154.07 224.66 81.012 38.93 176.68 32.05 242.235-14.05 3.383-2.65 6.758-5.5 9.965-8.31-11.461 5.91-23.555 10.91-36.059 14.92-44.34 21.37-97.086 29.84-149.531 18.59-103.215-16.18-196.793-110.16-212.945-227.39-1.309-7.58-2.188-15.32-2.731-23.08-3.105 2.25-5.004 7.76-5.004 14.66-1.734-8-1.734-15.99-1.348-24.08-1.121-37.5 7.329-76.14 22.989-112.14-6.078 18.59-9.883 37.37-11.965 56.12 7.461-36.53 22.832-71.65 46.23-99.9 15.383-15.82 32.606-50.56 53.434-61.71 79.211-62.83 199.398-84.16 280.52-37.94 11.105 2.99 22.175 6.2 32.171 11.99-12.961-4.3-27.511-7.17-39.144-11.25l-3.879-.04c-3.352-1.91-5.02-2.82-6.731-3.75-59.89-7.56-182.539-20.84-258.125 42.87-21.46 15.4-38.074 35.66-53.644 56.44 7.957-5.44 20.773-12.8 28.504-20.94 38.078-38.03 90.387-72.42 141.32-76.53-23.488 9.59-43.664 21-65.879 34.45-11.504 5.3-29.933 8.35-38.285 18.09-47.598 40.62-88.266 82.24-95.582 144.73-1.113 6.13 2.852 10.97.867 16.56 12.004-69.19 55.352-120.37 109.813-161.18 7.39-8.67 15.73-12.25 23.187-18.2 9.52-3.42 17.965-6.71 24.965-10.4 80.859-30.22 95.289 2.93 167.797 3.98-32.703-8.29-88.605-23.58-116.895-25.42 50.868-10.48 146.872 15.41 190.723 48.05 54.508 37.2 43.57 38.87 71.719 86.45 2.461 3.89 4.859 12.75 6.883 23.48 17.101 32.93 26.902 70.31 26.902 109.99 0 76.13-35.746 143.81-91.262 187.5M194.215 3949.4c-4.785 30.86-6.207 62.4.449 93.73-.633-6.18-1.148-11.15-.851-13.52-3.008-37.79-.102-68.66 3.359-88.72-.867 2.67-1.844 5.43-2.957 8.51a209 209 0 0 1 4.75-17.61c3.015-14.15 5.801-19.79 5.004-14.56 24.176-63.35 75.176-112.26 131.734-135.35-55.262 6.87-128.461 82.28-141.488 167.52m161.144 272.12c-46.211-9.64-91.421-35.17-124.617-80.41 22.246 28.19 48.785 43.34 74.684 52.44-2.336-1.71-4.61-3.41-6.856-5.17-20.207-11.98-39.179-26.38-56.156-44.42-4.582-5.87-6.672-13.02-10.949-18.21l-9.059-13.66c-12.011-11.35-19.187-24.94-26.996-39.34-33.906-74.8-29.828-167.94 16.703-246.25-84.133 116.5-50.945 282.96 48.625 356.67 41.434 32.69 89.453 48.65 136.606 51.25-14.524-2.99-28.535-7.41-41.985-12.9m152.844-460.93c-7.836-1.39 4.27 2 39.504 22.81 3.059 1.76 6.375 3.89 9.836 6.16a236.4 236.4 0 0 1 38.742 25.74c-34.687-33.57-77.305-54.88-88.082-54.71" style="fill:#ee8421;fill-rule:nonzero" transform="matrix(.12632 0 0 -.12632 267.515 2352.29)"/><path d="M894.211 3946.2c0-77.6 49.758-96.11 126.969-96.11h129.21v-115.56h-149.47c-152.732 0-240.139 53.56-240.139 255.65 0 174.92 28.578 266.87 227.27 266.87 157.659 0 195.969-64.41 195.969-203.92v-107.95zm164.689 106.36c0 51.15.24 101.19-78.224 101.19-77.492 0-87.387-47.96-87.387-101.19zm1094.07 204.49H1705.1v-522.52h111.97v410.57h78.97v-.05c26.87 0 48.78-20.43 51.66-46.59v-363.93h111.97v410.57h78.38v-.05c28.79 0 52.22-23.43 52.22-52.22v-358.3h111.96v373.24c0 82.39-66.8 149.28-149.26 149.28m-731.49-112v.05h209.01v111.95H1402l-.07-.27c-73.61-2.23-133.65-57.66-143.2-129.19h-1.5V3885h1.5l-1.5-1.2c0-80.79 64.39-146.55 144.7-149l.07-.27h228.49v112.01h-209.01c-28.83 0-52.26 23.43-52.26 52.26v194.03c0 28.79 23.43 52.22 52.26 52.22m1328.62-37.28c0 82.39-66.84 149.28-149.3 149.28h-223.92V4145.1h209.02v-.05c35.1 0 52.24-23.43 52.24-52.22 0 0 0-7.91-16.48-20.88-21.37-16.74-109.94-40.9-158.22-60.19v.24c-75.31-25.2-109.9-72.23-109.9-145.91 0-95.76 42.16-132.75 125.03-132.75h271.53c-2.4 56.22 0 374.43 0 374.43m-111.96-264.02h-159.6c-10.04 0-15.88 0-16.66 7.15-7.6 68.44 33.96 65.85 176.26 114.87z" style="fill:#231f20;fill-rule:nonzero" transform="matrix(.12632 0 0 -.12632 267.515 2352.29)"/><path d="M1818.69 3574.56h33.61v-167.52h-33.61zm75.12 0h41.29l63.85-125.27h.46v125.27h32.17v-167.52h-41.03l-64.09 125.28h-.48v-125.28h-32.17zm212.65-26.39h-48v26.39h129.59v-26.39h-47.99v-141.13h-33.6zm110.16 26.39h98.87v-26.39h-65.28v-41.29h59.77v-26.39h-59.77v-47.05h65.77v-26.4h-99.36zm137.76 0h36.23c36.01 0 78.96 1.2 78.96-45.35 0-19.69-13.2-36.01-34.55-38.88v-.49c9.12-.71 14.39-9.84 17.75-17.28l26.88-65.52h-37.44l-20.16 52.34c-4.8 12.46-9.12 17.26-23.28 17.26h-10.8v-69.6h-33.59zm33.59-71.51h11.05c16.55 0 35.51 2.4 35.51 23.28 0 20.16-18.71 21.84-35.51 21.84h-11.05zm121.44 71.51h41.29l63.83-125.27h.49v125.27h32.15v-167.52h-41.04l-64.08 125.28h-.47v-125.28h-32.17zm230.16 0h37.91l65.76-167.52h-37.19l-14.41 38.41h-67.91l-14.65-38.41h-34.78zm18.48-33.6h-.47l-24.26-69.12h48.97zm125.31 7.21h-47.99v26.39h129.59v-26.39h-47.99v-141.13h-33.61zm107.28 26.39h33.6v-167.52h-33.6zm150.73 2.88c52.56 0 82.07-35.52 82.07-86.15 0-50.65-29.03-87.12-82.07-87.12-53.77 0-82.09 35.75-82.09 87.12 0 51.35 28.81 86.15 82.09 86.15m0-146.87c34.31 0 47.03 30.48 47.03 60.72 0 29.51-13.67 59.76-47.03 59.76s-47.05-30.25-47.05-59.76c0-30.24 12.73-60.72 47.05-60.72m118.32 143.99h41.27l63.84-125.27h.49v125.27h32.15v-167.52h-41.03l-64.09 125.28h-.46v-125.28h-32.17zm230.15 0h37.91l65.77-167.52h-37.19l-14.42 38.41H3474l-14.64-38.41h-34.79zm18.48-33.6h-.47l-24.26-69.12h48.97zm114 33.6h33.6v-141.12h65.04v-26.4h-98.64z" style="fill:#cbd7de;fill-rule:nonzero" transform="matrix(.12632 0 0 -.12632 267.515 2352.29)"/></svg>