<svg clip-rule="evenodd" fill-rule="evenodd" viewBox="0 0 181 121" xmlns="http://www.w3.org/2000/svg"><path d="m120.5 8v15c0 4.139-3.361 7.5-7.5 7.5h-45c-4.139 0-7.5-3.361-7.5-7.5v-15c0-4.139 3.361-7.5 7.5-7.5h45c4.139 0 7.5 3.361 7.5 7.5z" fill="#fff" stroke="#000"/><text font-family="Arial" font-size="16" transform="translate(90.5 21.2383)" x="-5.336">A</text><path d="m60.5 98v15c0 4.139-3.361 7.5-7.5 7.5h-45c-4.139 0-7.5-3.361-7.5-7.5v-15c0-4.139 3.361-7.5 7.5-7.5h45c4.139 0 7.5 3.361 7.5 7.5z" fill="#fff" stroke="#000"/><text font-family="Arial" font-size="16" transform="translate(30.5 111.246)" x="-5.336">B</text><path d="m180.5 98v15c0 4.139-3.361 7.5-7.5 7.5h-45c-4.139 0-7.5-3.361-7.5-7.5v-15c0-4.139 3.361-7.5 7.5-7.5h45c4.139 0 7.5 3.361 7.5 7.5z" fill="#fff" stroke="#000"/><text font-family="Arial" font-size="16" transform="translate(150.5 111.246)" x="-5.777">C</text><path d="m85.583 41.663c-12.968 22.14-30.186 37.344-54.097 49.299l-2.734-.913 1.839-.875c23.526-11.763 40.46-26.693 53.226-48.454l-4.77-2.548 11.453-7.672-.008 13.785z"/><path d="m85.583 41.663c-12.968 22.14-30.186 37.344-54.097 49.299l-2.827-.679 1.932-1.109c23.526-11.763 40.46-26.693 53.226-48.454l-4.77-2.548 11.453-7.672-.008 13.785z" transform="matrix(-1 0 0 -1 117.063 121.231)"/><path d="m100.153 54.405-.374 32.172-.452-.159-.165-.232.369-31.781h-1.726l2.017-5.463 2.017 5.463z" transform="matrix(-2.28619 2.26237 -1.56616 -1.58265 455.379 -57.8756)"/></svg>
