<?xml version="1.0" encoding="UTF-8" standalone="no"?>
<svg
   xmlns:dc="http://purl.org/dc/elements/1.1/"
   xmlns:cc="http://creativecommons.org/ns#"
   xmlns:rdf="http://www.w3.org/1999/02/22-rdf-syntax-ns#"
   xmlns:svg="http://www.w3.org/2000/svg"
   xmlns="http://www.w3.org/2000/svg"
   xmlns:sodipodi="http://sodipodi.sourceforge.net/DTD/sodipodi-0.dtd"
   xmlns:inkscape="http://www.inkscape.org/namespaces/inkscape"
   viewBox="0 0 496.12799 132.66666"
   height="132.66666"
   width="496.12799"
   xml:space="preserve"
   id="svg2"
   version="1.1"
   sodipodi:docname="Ecma logo.svg"
   inkscape:version="0.92.1 r15371"><sodipodi:namedview
     pagecolor="#ffffff"
     bordercolor="#666666"
     borderopacity="1"
     objecttolerance="10"
     gridtolerance="10"
     guidetolerance="10"
     inkscape:pageopacity="0"
     inkscape:pageshadow="2"
     inkscape:window-width="2840"
     inkscape:window-height="1955"
     id="namedview3808"
     showgrid="false"
     inkscape:zoom="2.8096018"
     inkscape:cx="248.06667"
     inkscape:cy="-147.88723"
     inkscape:window-x="147"
     inkscape:window-y="-13"
     inkscape:window-maximized="1"
     inkscape:current-layer="g12" /><metadata
     id="metadata8"><rdf:RDF><cc:Work
         rdf:about=""><dc:format>image/svg+xml</dc:format><dc:type
           rdf:resource="http://purl.org/dc/dcmitype/StillImage" /></cc:Work></rdf:RDF></metadata><defs
     id="defs6" /><g
     transform="matrix(1.3333333,0,0,-1.3333333,0,586.55599)"
     id="g10"><g
       transform="scale(0.1)"
       id="g12"><path
         id="path14"
         style="fill:#cbd7de;fill-opacity:1;fill-rule:nonzero;stroke:none"
         d="M 1705.1,3407.04 H 0 v 992.13 h 1705.1 v -992.13"
         inkscape:connector-curvature="0" /><path
         id="path16"
         style="fill:#ee8421;fill-opacity:1;fill-rule:nonzero;stroke:none"
         d="m 309.605,3723.67 c -21.984,15.34 -49.589,36.21 -70.05,56.04 -29.344,26.62 -53.328,59.08 -70.086,94.86 13.027,-37.43 33.894,-73.61 64.707,-102.99 23.789,-19.45 49.277,-35.2 75.429,-47.91 z m 283.508,464.34 c -23.019,34.91 -67.136,55.51 -109.523,68.96 -125.883,49.63 -305.324,-45.01 -331.926,-208.18 -1.707,-7.6 -4.519,-24.99 -3.836,-38 11.387,99.8 71.883,187.38 154.07,224.66 81.012,38.93 176.68,32.05 242.235,-14.05 3.383,-2.65 6.758,-5.5 9.965,-8.31 -11.461,5.91 -23.555,10.91 -36.059,14.92 -44.34,21.37 -97.086,29.84 -149.531,18.59 -103.215,-16.18 -196.793,-110.16 -212.945,-227.39 -1.309,-7.58 -2.188,-15.32 -2.731,-23.08 -3.105,2.25 -5.004,7.76 -5.004,14.66 -1.734,-8 -1.734,-15.99 -1.348,-24.08 -1.121,-37.5 7.329,-76.14 22.989,-112.14 -6.078,18.59 -9.883,37.37 -11.965,56.12 7.461,-36.53 22.832,-71.65 46.23,-99.9 15.383,-15.82 32.606,-50.56 53.434,-61.71 79.211,-62.83 199.398,-84.16 280.52,-37.94 11.105,2.99 22.175,6.2 32.171,11.99 -12.961,-4.3 -27.511,-7.17 -39.144,-11.25 l -3.879,-0.04 c -3.352,-1.91 -5.02,-2.82 -6.731,-3.75 -59.89,-7.56 -182.539,-20.84 -258.125,42.87 -21.46,15.4 -38.074,35.66 -53.644,56.44 7.957,-5.44 20.773,-12.8 28.504,-20.94 38.078,-38.03 90.387,-72.42 141.32,-76.53 -23.488,9.59 -43.664,21 -65.879,34.45 -11.504,5.3 -29.933,8.35 -38.285,18.09 -47.598,40.62 -88.266,82.24 -95.582,144.73 -1.113,6.13 2.852,10.97 0.867,16.56 12.004,-69.19 55.352,-120.37 109.813,-161.18 7.39,-8.67 15.73,-12.25 23.187,-18.2 9.52,-3.42 17.965,-6.71 24.965,-10.4 80.859,-30.22 95.289,2.93 167.797,3.98 -32.703,-8.29 -88.605,-23.58 -116.895,-25.42 50.868,-10.48 146.872,15.41 190.723,48.05 54.508,37.2 43.57,38.87 71.719,86.45 2.461,3.89 4.859,12.75 6.883,23.48 17.101,32.93 26.902,70.31 26.902,109.99 0,76.13 -35.746,143.81 -91.262,187.5 z M 194.215,3949.4 c -4.785,30.86 -6.207,62.4 0.449,93.73 -0.633,-6.18 -1.148,-11.15 -0.851,-13.52 -3.008,-37.79 -0.102,-68.66 3.359,-88.72 -0.867,2.67 -1.844,5.43 -2.957,8.51 1.332,-5.95 2.926,-11.87 4.75,-17.61 3.015,-14.15 5.801,-19.79 5.004,-14.56 24.176,-63.35 75.176,-112.26 131.734,-135.35 -55.262,6.87 -128.461,82.28 -141.488,167.52 z m 161.144,272.12 c -46.211,-9.64 -91.421,-35.17 -124.617,-80.41 22.246,28.19 48.785,43.34 74.684,52.44 -2.336,-1.71 -4.61,-3.41 -6.856,-5.17 -20.207,-11.98 -39.179,-26.38 -56.156,-44.42 -4.582,-5.87 -6.672,-13.02 -10.949,-18.21 l -9.059,-13.66 c -12.011,-11.35 -19.187,-24.94 -26.996,-39.34 -33.906,-74.8 -29.828,-167.94 16.703,-246.25 -84.133,116.5 -50.945,282.96 48.625,356.67 41.434,32.69 89.453,48.65 136.606,51.25 -14.524,-2.99 -28.535,-7.41 -41.985,-12.9 z m 152.844,-460.93 c -7.836,-1.39 4.27,2 39.504,22.81 3.059,1.76 6.375,3.89 9.836,6.16 13.734,7.28 26.727,15.93 38.742,25.74 -34.687,-33.57 -77.305,-54.88 -88.082,-54.71"
         inkscape:connector-curvature="0" /><path
         id="path18"
         style="fill:#231f20;fill-opacity:1;fill-rule:nonzero;stroke:none"
         d="m 894.211,3946.2 c 0,-77.6 49.758,-96.11 126.969,-96.11 h 129.21 v -115.56 c 0,0 -88.73,0 -149.47,0 -152.732,0 -240.139,53.56 -240.139,255.65 0,174.92 28.578,266.87 227.27,266.87 157.659,0 195.969,-64.41 195.969,-203.92 0,-26.55 0,-107.95 0,-107.95 z m 164.689,106.36 c 0,51.15 0.24,101.19 -78.224,101.19 -77.492,0 -87.387,-47.96 -87.387,-101.19 H 1058.9"
         inkscape:connector-curvature="0" /><path
         id="path20"
         style="fill:#231f20;fill-opacity:1;fill-rule:nonzero;stroke:none"
         d="M 2152.97,4257.05 H 1705.1 v -522.52 h 111.97 v 410.57 h 78.97 v -0.05 c 26.87,0 48.78,-20.43 51.66,-46.59 v -363.93 h 111.97 v 410.57 h 78.38 v -0.05 c 28.79,0 52.22,-23.43 52.22,-52.22 v 0 -358.3 h 111.96 v 373.24 c 0,82.39 -66.8,149.28 -149.26,149.28"
         inkscape:connector-curvature="0" /><path
         id="path22"
         style="fill:#231f20;fill-opacity:1;fill-rule:nonzero;stroke:none"
         d="m 1421.48,4145.05 v 0.05 h 209.01 v 111.95 H 1402 l -0.07,-0.27 c -73.61,-2.23 -133.65,-57.66 -143.2,-129.19 h -1.5 V 3885 h 1.5 l -1.5,-1.2 c 0,-80.79 64.39,-146.55 144.7,-149 l 0.07,-0.27 h 228.49 v 112.01 h -209.01 c -28.83,0 -52.26,23.43 -52.26,52.26 v 194.03 c 0,28.79 23.43,52.22 52.26,52.22"
         inkscape:connector-curvature="0" /><path
         id="path24"
         style="fill:#231f20;fill-opacity:1;fill-rule:nonzero;stroke:none"
         d="m 2750.1,4107.77 c 0,82.39 -66.84,149.28 -149.3,149.28 -45.76,0 -223.92,0 -223.92,0 V 4145.1 h 209.02 v -0.05 c 35.1,0 52.24,-23.43 52.24,-52.22 0,0 0,-7.91 -16.48,-20.88 -21.37,-16.74 -109.94,-40.9 -158.22,-60.19 v 0.24 c -75.31,-25.2 -109.9,-72.23 -109.9,-145.91 0,-95.76 42.16,-132.75 125.03,-132.75 h 271.53 c -2.4,56.22 0,374.43 0,374.43 z m -111.96,-264.02 c 0,0 -127.96,0 -159.6,0 -10.04,0 -15.88,0 -16.66,7.15 -7.6,68.44 33.96,65.85 176.26,114.87 v -122.02"
         inkscape:connector-curvature="0" /><path
         id="path26"
         style="fill:#cbd7de;fill-opacity:1;fill-rule:nonzero;stroke:none"
         d="m 1818.69,3574.56 h 33.61 v -167.52 h -33.61 v 167.52"
         inkscape:connector-curvature="0" /><path
         id="path28"
         style="fill:#cbd7de;fill-opacity:1;fill-rule:nonzero;stroke:none"
         d="m 1893.81,3574.56 h 41.29 l 63.85,-125.27 h 0.46 v 125.27 h 32.17 v -167.52 h -41.03 l -64.09,125.28 h -0.48 v -125.28 h -32.17 v 167.52"
         inkscape:connector-curvature="0" /><path
         id="path30"
         style="fill:#cbd7de;fill-opacity:1;fill-rule:nonzero;stroke:none"
         d="m 2106.46,3548.17 h -48 v 26.39 h 129.59 v -26.39 h -47.99 v -141.13 h -33.6 v 141.13"
         inkscape:connector-curvature="0" /><path
         id="path32"
         style="fill:#cbd7de;fill-opacity:1;fill-rule:nonzero;stroke:none"
         d="m 2216.62,3574.56 h 98.87 v -26.39 h -65.28 v -41.29 h 59.77 v -26.39 h -59.77 v -47.05 h 65.77 v -26.4 h -99.36 v 167.52"
         inkscape:connector-curvature="0" /><path
         id="path34"
         style="fill:#cbd7de;fill-opacity:1;fill-rule:nonzero;stroke:none"
         d="m 2354.38,3574.56 h 36.23 c 36.01,0 78.96,1.2 78.96,-45.35 0,-19.69 -13.2,-36.01 -34.55,-38.88 v -0.49 c 9.12,-0.71 14.39,-9.84 17.75,-17.28 l 26.88,-65.52 h -37.44 l -20.16,52.34 c -4.8,12.46 -9.12,17.26 -23.28,17.26 h -10.8 v -69.6 h -33.59 z m 33.59,-71.51 h 11.05 c 16.55,0 35.51,2.4 35.51,23.28 0,20.16 -18.71,21.84 -35.51,21.84 h -11.05 v -45.12"
         inkscape:connector-curvature="0" /><path
         id="path36"
         style="fill:#cbd7de;fill-opacity:1;fill-rule:nonzero;stroke:none"
         d="m 2509.41,3574.56 h 41.29 l 63.83,-125.27 h 0.49 v 125.27 h 32.15 v -167.52 h -41.04 l -64.08,125.28 h -0.47 v -125.28 h -32.17 v 167.52"
         inkscape:connector-curvature="0" /><path
         id="path38"
         style="fill:#cbd7de;fill-opacity:1;fill-rule:nonzero;stroke:none"
         d="m 2739.57,3574.56 h 37.91 l 65.76,-167.52 h -37.19 l -14.41,38.41 h -67.91 l -14.65,-38.41 h -34.78 z m 18.48,-33.6 h -0.47 l -24.26,-69.12 h 48.97 l -24.24,69.12"
         inkscape:connector-curvature="0" /><path
         id="path40"
         style="fill:#cbd7de;fill-opacity:1;fill-rule:nonzero;stroke:none"
         d="m 2883.36,3548.17 h -47.99 v 26.39 h 129.59 v -26.39 h -47.99 v -141.13 h -33.61 v 141.13"
         inkscape:connector-curvature="0" /><path
         id="path42"
         style="fill:#cbd7de;fill-opacity:1;fill-rule:nonzero;stroke:none"
         d="m 2990.64,3574.56 h 33.6 v -167.52 h -33.6 v 167.52"
         inkscape:connector-curvature="0" /><path
         id="path44"
         style="fill:#cbd7de;fill-opacity:1;fill-rule:nonzero;stroke:none"
         d="m 3141.37,3577.44 c 52.56,0 82.07,-35.52 82.07,-86.15 0,-50.65 -29.03,-87.12 -82.07,-87.12 -53.77,0 -82.09,35.75 -82.09,87.12 0,51.35 28.81,86.15 82.09,86.15 z m 0,-146.87 c 34.31,0 47.03,30.48 47.03,60.72 0,29.51 -13.67,59.76 -47.03,59.76 -33.36,0 -47.05,-30.25 -47.05,-59.76 0,-30.24 12.73,-60.72 47.05,-60.72"
         inkscape:connector-curvature="0" /><path
         id="path46"
         style="fill:#cbd7de;fill-opacity:1;fill-rule:nonzero;stroke:none"
         d="m 3259.69,3574.56 h 41.27 l 63.84,-125.27 h 0.49 v 125.27 h 32.15 v -167.52 h -41.03 l -64.09,125.28 h -0.46 v -125.28 h -32.17 v 167.52"
         inkscape:connector-curvature="0" /><path
         id="path48"
         style="fill:#cbd7de;fill-opacity:1;fill-rule:nonzero;stroke:none"
         d="m 3489.84,3574.56 h 37.91 l 65.77,-167.52 h -37.19 l -14.42,38.41 H 3474 l -14.64,-38.41 h -34.79 z m 18.48,-33.6 h -0.47 l -24.26,-69.12 h 48.97 l -24.24,69.12"
         inkscape:connector-curvature="0" /><path
         id="path50"
         style="fill:#cbd7de;fill-opacity:1;fill-rule:nonzero;stroke:none"
         d="m 3622.32,3574.56 h 33.6 v -141.12 h 65.04 v -26.4 h -98.64 v 167.52"
         inkscape:connector-curvature="0" /></g></g></svg>