<svg clip-rule="evenodd" fill-rule="evenodd" viewBox="0 0 241 211" xmlns="http://www.w3.org/2000/svg"><path d="m120.5 8v15c0 4.139-3.361 7.5-7.5 7.5h-45c-4.139 0-7.5-3.361-7.5-7.5v-15c0-4.139 3.361-7.5 7.5-7.5h45c4.139 0 7.5 3.361 7.5 7.5z" fill="#fff" stroke="#000"/><text font-family="Arial" font-size="16" transform="translate(90.5 21.2383)" x="-5.336">A</text><path d="m60.5 98v15c0 4.139-3.361 7.5-7.5 7.5h-45c-4.139 0-7.5-3.361-7.5-7.5v-15c0-4.139 3.361-7.5 7.5-7.5h45c4.139 0 7.5 3.361 7.5 7.5z" fill="#fff" stroke="#000"/><text font-family="Arial" font-size="16" transform="translate(30.5 111.246)" x="-5.336">B</text><path d="m180.5 98v15c0 4.139-3.361 7.5-7.5 7.5h-45c-4.139 0-7.5-3.361-7.5-7.5v-15c0-4.139 3.361-7.5 7.5-7.5h45c4.139 0 7.5 3.361 7.5 7.5z" fill="#fff" stroke="#000"/><text font-family="Arial" font-size="16" transform="translate(150.5 111.246)" x="-5.777">C</text><path d="m120.5 188v15c0 4.139-3.361 7.5-7.5 7.5h-45c-4.139 0-7.5-3.361-7.5-7.5v-15c0-4.139 3.361-7.5 7.5-7.5h45c4.139 0 7.5 3.361 7.5 7.5z" fill="#fff" stroke="#000"/><text font-family="Arial" font-size="16" transform="translate(90.5 201.238)" x="-5.777">D</text><path d="m240.5 188v15c0 4.139-3.361 7.5-7.5 7.5h-45c-4.139 0-7.5-3.361-7.5-7.5v-15c0-4.139 3.361-7.5 7.5-7.5h45c4.139 0 7.5 3.361 7.5 7.5z" fill="#fff" stroke="#000"/><text font-family="Arial" font-size="16" transform="translate(210.5 201.238)" x="-5.336">E</text><path d="m100.153 54.405-.374 32.172-.452-.159-.165-.232.369-31.781h-1.726l2.017-5.463 2.017 5.463z" transform="matrix(-2.28619 2.26237 -1.56616 -1.58265 515.363 32.1244)"/><path d="m100.153 54.405-.374 32.172-.452-.159-.165-.232.369-31.781h-1.726l2.017-5.463 2.017 5.463z" transform="matrix(-2.28619 2.26237 -1.56616 -1.58265 395.363 32.1244)"/><path d="m100.153 54.405-.374 32.172-.452-.159-.165-.232.369-31.781h-1.726l2.017-5.463 2.017 5.463z" transform="matrix(2.28619 2.26237 1.56616 -1.58265 -213.206 32.1244)"/><path d="m100.153 54.405-.374 32.172-.452-.159-.165-.232.369-31.781h-1.726l2.017-5.463 2.017 5.463z" transform="matrix(-2.28619 2.26237 -1.56616 -1.58265 455.363 -57.8756)"/><path d="m100.296 54.601-.016 62.064h-.618l.012-62.064h-1.727l2.017-5.462 2.017 5.462z" transform="matrix(3.21636 0 0 2.22658 -230.563 -78.9113)"/><path d="m100.153 54.405-.374 32.172-.452-.159-.165-.232.369-31.781h-1.726l2.017-5.463 2.017 5.463z" transform="matrix(2.28619 2.26237 1.56616 -1.58265 -273.206 -57.8756)"/></svg>
