<svg clip-rule="evenodd" fill-rule="evenodd" stroke-linejoin="round" stroke-miterlimit="1.5" viewBox="0 0 2162 195" xmlns="http://www.w3.org/2000/svg" xmlns:xlink="http://www.w3.org/1999/xlink"><linearGradient id="a"><stop offset="0" stop-color="#fff" stop-opacity="0"/><stop offset="1" stop-color="#cbd7de"/></linearGradient><linearGradient id="b" gradientUnits="userSpaceOnUse" x1="956.622" x2="2161.582" xlink:href="#a" y1="5.38908" y2="5.38908"/><linearGradient id="c" gradientUnits="userSpaceOnUse" x1="956.622" x2="2161.582" xlink:href="#a" y1="22.3298" y2="22.3298"/><linearGradient id="d" gradientUnits="userSpaceOnUse" x1="956.622" x2="2161.582" xlink:href="#a" y1="39.2706" y2="39.2706"/><linearGradient id="e" gradientUnits="userSpaceOnUse" x1="956.622" x2="2161.582" xlink:href="#a" y1="56.2113" y2="56.2113"/><linearGradient id="f" gradientUnits="userSpaceOnUse" x1="956.622" x2="2161.582" xlink:href="#a" y1="73.152" y2="73.152"/><linearGradient id="g" gradientUnits="userSpaceOnUse" x1="956.622" x2="2161.582" xlink:href="#a" y1="90.0928" y2="90.0928"/><linearGradient id="h" gradientUnits="userSpaceOnUse" x1="956.622" x2="2161.582" xlink:href="#a" y1="107.034" y2="107.034"/><linearGradient id="i" gradientUnits="userSpaceOnUse" x1="956.622" x2="2161.582" xlink:href="#a" y1="123.974" y2="123.974"/><linearGradient id="j" gradientUnits="userSpaceOnUse" x1="956.622" x2="2161.582" xlink:href="#a" y1="140.915" y2="140.915"/><linearGradient id="k" gradientUnits="userSpaceOnUse" x1="956.622" x2="2161.582" xlink:href="#a" y1="157.856" y2="157.856"/><linearGradient id="l" gradientUnits="userSpaceOnUse" x1="956.622" x2="2161.582" xlink:href="#a" y1="174.796" y2="174.796"/><linearGradient id="m" gradientUnits="userSpaceOnUse" x1="956.622" x2="2161.582" xlink:href="#a" y1="191.737" y2="191.737"/><g fill-rule="nonzero"><path d="m333.323 193.947h-333.323v-193.947h333.323z" fill="#cbd7de"/><path d="m60.523 132.051c-4.297-2.999-9.694-7.079-13.693-10.955-5.737-5.204-10.425-11.55-13.701-18.544 2.546 7.317 6.626 14.389 12.649 20.133 4.65 3.802 9.633 6.881 14.745 9.366zm55.422-90.772c-4.5-6.825-13.124-10.852-21.41-13.481-24.608-9.702-59.687 8.799-64.887 40.696-.334 1.486-.883 4.885-.75 7.429 2.226-19.51 14.052-36.63 30.119-43.918 15.836-7.61 34.538-6.265 47.353 2.746.662.519 1.321 1.076 1.948 1.625-2.24-1.155-4.604-2.133-7.049-2.917-8.668-4.177-18.979-5.833-29.231-3.634-20.177 3.163-38.47 21.535-41.628 44.452-.256 1.482-.427 2.995-.534 4.512-.607-.44-.978-1.517-.978-2.866-.339 1.564-.339 3.126-.263 4.707-.219 7.331 1.432 14.884 4.494 21.922-1.188-3.634-1.932-7.306-2.339-10.971 1.458 7.141 4.463 14.007 9.037 19.529 3.007 3.093 6.374 9.884 10.446 12.064 15.484 12.282 38.979 16.452 54.837 7.416 2.171-.584 4.335-1.212 6.289-2.344-2.533.841-5.378 1.402-7.652 2.2l-.758.007c-.655.374-.981.552-1.316.734-11.708 1.477-35.684 4.073-50.46-8.381-4.195-3.01-7.443-6.971-10.486-11.033 1.555 1.063 4.061 2.502 5.572 4.093 7.444 7.435 17.669 14.157 27.626 14.961-4.592-1.875-8.536-4.105-12.879-6.735-2.248-1.036-5.851-1.632-7.484-3.536-9.304-7.941-17.254-16.077-18.685-28.293-.217-1.198.558-2.144.17-3.237 2.346 13.526 10.82 23.531 21.467 31.509 1.444 1.694 3.075 2.394 4.532 3.557 1.861.669 3.512 1.312 4.881 2.033 15.807 5.908 18.627-.572 32.802-.778-6.393 1.621-17.321 4.61-22.852 4.97 9.944 2.048 28.712-3.013 37.284-9.393 10.656-7.273 8.517-7.599 14.02-16.9.481-.761.95-2.493 1.346-4.59 3.343-6.438 5.259-13.745 5.259-21.502 0-14.882-6.988-28.112-17.841-36.653zm-77.979 46.645c-.935-6.033-1.213-12.199.088-18.323-.124 1.208-.224 2.179-.166 2.643-.588 7.387-.02 13.422.656 17.343-.169-.522-.36-1.061-.578-1.663.261 1.163.572 2.32.929 3.442.589 2.766 1.134 3.869.978 2.846 4.726 12.384 14.696 21.946 25.752 26.459-10.803-1.343-25.112-16.084-27.659-32.747zm31.502-53.196c-9.034 1.885-17.872 6.875-24.361 15.719 4.349-5.511 9.537-8.472 14.599-10.251-.456.334-.901.666-1.34 1.01-3.95 2.342-7.659 5.157-10.978 8.684-.895 1.147-1.304 2.545-2.14 3.56l-1.771 2.67c-2.348 2.219-3.751 4.875-5.277 7.69-6.628 14.623-5.831 32.83 3.265 48.139-16.447-22.774-9.959-55.315 9.506-69.724 8.099-6.391 17.486-9.51 26.704-10.019-2.839.585-5.578 1.449-8.207 2.522zm29.878 90.105c-1.531.272.835-.391 7.723-4.459.598-.344 1.246-.76 1.923-1.204 2.684-1.423 5.224-3.114 7.573-5.032-6.781 6.563-15.112 10.728-17.219 10.695" fill="#ee8421"/><path d="m174.805 88.549c0 15.17 9.727 18.788 24.821 18.788h25.259v22.591h-29.219c-29.857 0-46.944-10.471-46.944-49.976 0-34.195 5.586-52.17 44.428-52.17 30.82 0 38.309 12.592 38.309 39.864v21.103zm32.195-20.792c0-9.999.047-19.781-15.292-19.781-15.148 0-17.083 9.376-17.083 19.781z" fill="#231f20"/><path d="m420.875 27.782h-87.552v102.146h21.888v-80.261h15.438v.01c5.252 0 9.535 3.994 10.098 9.107v71.144h21.889v-80.261h15.322v.01c5.628 0 10.208 4.58 10.208 10.208v70.043h21.887v-72.963c0-16.107-13.058-29.183-29.178-29.183" fill="#231f20"/><path d="m277.879 49.677v-.01h40.858v-21.885h-44.666l-.014.053c-14.389.436-26.126 11.272-27.993 25.255h-.294v47.423h.294l-.294.234c0 15.794 12.588 28.649 28.287 29.128l.014.053h44.666v-21.897h-40.858c-5.636 0-10.216-4.58-10.216-10.216v-37.93c0-5.628 4.58-10.208 10.216-10.208" fill="#231f20"/><path d="m537.605 56.965c0-16.107-13.066-29.183-29.186-29.183h-43.773v21.885h40.86v.01c6.862 0 10.213 4.58 10.213 10.208 0 0 0 1.546-3.222 4.082-4.178 3.272-21.492 7.995-30.93 11.766v-.047c-14.722 4.926-21.484 14.12-21.484 28.523 0 18.72 8.242 25.951 24.442 25.951h53.08c-.469-10.99 0-73.195 0-73.195zm-21.886 51.612h-31.2c-1.963 0-3.104 0-3.257-1.398-1.485-13.379 6.639-12.873 34.457-22.456z" fill="#231f20"/><path d="m355.528 161.199h6.57v32.748h-6.57z" fill="#cbd7de"/><path d="m370.213 161.199h8.071l12.482 24.489h.09v-24.489h6.289v32.748h-8.021l-12.529-24.49h-.094v24.49h-6.288z" fill="#cbd7de"/><path d="m411.783 166.358h-9.384v-5.159h25.333v5.159h-9.381v27.589h-6.568z" fill="#cbd7de"/><path d="m433.317 161.199h19.328v5.159h-12.761v8.072h11.684v5.159h-11.684v9.197h12.857v5.161h-19.424z" fill="#cbd7de"/><path d="m460.248 161.199h7.082c7.039 0 15.436-.234 15.436 8.866 0 3.849-2.581 7.039-6.754 7.6v.096c1.782.139 2.813 1.924 3.469 3.378l5.255 12.808h-7.319l-3.941-10.232c-.938-2.435-1.783-3.374-4.551-3.374h-2.111v13.606h-6.566zm6.566 13.98h2.16c3.235 0 6.942-.47 6.942-4.551 0-3.941-3.658-4.27-6.942-4.27h-2.16z" fill="#cbd7de"/><path d="m490.554 161.199h8.071l12.478 24.489h.096v-24.489h6.285v32.748h-8.023l-12.527-24.49h-.092v24.49h-6.288z" fill="#cbd7de"/><path d="m535.547 161.199h7.411l12.855 32.748h-7.27l-2.817-7.508h-13.276l-2.864 7.508h-6.799zm3.612 6.569h-.092l-4.742 13.512h9.573z" fill="#cbd7de"/><path d="m563.656 166.358h-9.382v-5.159h25.333v5.159h-9.381v27.589h-6.57z" fill="#cbd7de"/><path d="m584.627 161.199h6.569v32.748h-6.569z" fill="#cbd7de"/><path d="m614.093 160.636c10.275 0 16.043 6.944 16.043 16.842 0 9.901-5.675 17.03-16.043 17.03-10.511 0-16.048-6.988-16.048-17.03 0-10.039 5.632-16.842 16.048-16.842zm0 28.711c6.707 0 9.193-5.958 9.193-11.869 0-5.769-2.672-11.683-9.193-11.683-6.522 0-9.198 5.914-9.198 11.683 0 5.911 2.489 11.869 9.198 11.869" fill="#cbd7de"/><path d="m637.223 161.199h8.067l12.48 24.489h.096v-24.489h6.285v32.748h-8.021l-12.529-24.49h-.09v24.49h-6.288z" fill="#cbd7de"/><path d="m682.214 161.199h7.411l12.857 32.748h-7.27l-2.819-7.508h-13.276l-2.862 7.508h-6.801zm3.612 6.569h-.092l-4.742 13.512h9.573z" fill="#cbd7de"/><path d="m708.112 161.199h6.568v27.587h12.714v5.161h-19.282z" fill="#cbd7de"/></g><path d="m2161.58 5.389h-1204.96" fill="none" stroke="url(#b)" stroke-width="7.8"/><path d="m2161.58 22.33h-1204.96" fill="none" stroke="url(#c)" stroke-width="7.8"/><path d="m2161.58 39.271h-1204.96" fill="none" stroke="url(#d)" stroke-width="7.8"/><path d="m2161.58 56.211h-1204.96" fill="none" stroke="url(#e)" stroke-width="7.8"/><path d="m2161.58 73.152h-1204.96" fill="none" stroke="url(#f)" stroke-width="7.8"/><path d="m2161.58 90.093h-1204.96" fill="none" stroke="url(#g)" stroke-width="7.8"/><path d="m2161.58 107.034h-1204.96" fill="none" stroke="url(#h)" stroke-width="7.8"/><path d="m2161.58 123.974h-1204.96" fill="none" stroke="url(#i)" stroke-width="7.8"/><path d="m2161.58 140.915h-1204.96" fill="none" stroke="url(#j)" stroke-width="7.8"/><path d="m2161.58 157.856h-1204.96" fill="none" stroke="url(#k)" stroke-width="7.8"/><path d="m2161.58 174.796h-1204.96" fill="none" stroke="url(#l)" stroke-width="7.8"/><path d="m2161.58 191.737h-1204.96" fill="none" stroke="url(#m)" stroke-width="7.8"/></svg>