<svg clip-rule="evenodd" fill-rule="evenodd" viewBox="0 0 65 215" xmlns="http://www.w3.org/2000/svg"><g transform="translate(-58.4384 1.56155)"><path d="m120.5 8v15c0 4.139-3.361 7.5-7.5 7.5h-45c-4.139 0-7.5-3.361-7.5-7.5v-15c0-4.139 3.361-7.5 7.5-7.5h45c4.139 0 7.5 3.361 7.5 7.5z" fill="#fff" stroke="#000"/><text font-family="Arial" font-size="16" transform="translate(90.5 21.2383)" x="-5.336">A</text><path d="m120.5 98v15c0 4.139-3.361 7.5-7.5 7.5h-45c-4.139 0-7.5-3.361-7.5-7.5v-15c0-4.139 3.361-7.5 7.5-7.5h45c4.139 0 7.5 3.361 7.5 7.5z" fill="#fff" stroke="#000"/><text font-family="Arial" font-size="16" transform="translate(90.5 111.238)" x="-5.336">B</text><path d="m120.5 188v15c0 4.139-3.361 7.5-7.5 7.5h-45c-4.139 0-7.5-3.361-7.5-7.5v-15c0-4.139 3.361-7.5 7.5-7.5h45c4.139 0 7.5 3.361 7.5 7.5z" fill="#fff" stroke="#000"/><text font-family="Arial" font-size="16" transform="translate(90.5 201.246)" x="-5.777">C</text><path d="m100.153 54.405v21.278h-.622v-21.278h-1.726l2.017-5.463 2.017 5.463z" transform="matrix(-3.21636 0 0 -2.22658 411.563 199.015)"/><path d="m100.153 54.405v21.278h-.622v-21.278h-1.726l2.017-5.463 2.017 5.463z" transform="matrix(-3.21636 0 0 -2.22658 411.563 289.474)"/></g></svg>
